<svg xmlns="http://www.w3.org/2000/svg" xml:space="preserve" width="800" height="800" viewBox="0 0 558.964 558.964"><path d="M0 383.987h171.02v131.846H0zM387.943 428.987h171.021v86.843H387.943zM186.323 329.513h186.32v186.32h-186.32zM427.5 119.334c3.137-26.638-16.034-48.752-39.887-56.384-2.602-.832-4.483-3.513-4.214-6.23.297-2.999.505-5.888.621-8.645.113-2.729-2.108-4.945-4.841-4.945H179.79c-2.732 0-4.954 2.215-4.838 4.945.116 2.757.321 5.646.618 8.645.27 2.717-1.613 5.401-4.213 6.233-23.853 7.632-43.027 29.747-39.887 56.384 1.775 15.074 7.76 29.884 20.227 39.376 7.02 5.346 14.458 9.367 22.42 13.097a521.73 521.73 0 0 0 10.998 4.676c7.58 3.173 11.359 6.276 16.588 10.744 2.078 1.775 2.075 1.53-.609 1.016-8.611-1.64-15.937 11.659-7.372 18.847 8.685 7.292 18.712 5.96 27.072-1.114 2.531-2.142 4.116-4.672 4.97-7.402.817-2.607 2.09-3.075 3.767-.921 9.006 11.564 18.81 20.744 29.171 26.179 2.421 1.27 4.48 4.312 4.48 7.044v31.053c0 .952.095 1.879.266 2.778.288 1.519-1.472 2.696-4.204 2.696h-20.527c-6.756 0-12.23 5.475-12.23 12.23v19.63c0 6.757 5.477 12.231 12.23 12.231h81.537c6.757 0 12.231-5.475 12.231-12.231v-19.63c0-6.756-5.478-12.23-12.231-12.23h-20.526c-2.732 0-4.492-1.179-4.204-2.696.171-.899.267-1.826.267-2.778v-31.056c0-2.733 2.059-5.774 4.477-7.044 10.361-5.435 20.165-14.614 29.171-26.178 1.677-2.154 2.949-1.686 3.767.921.854 2.729 2.438 5.26 4.97 7.402 8.359 7.075 18.388 8.406 27.071 1.114 8.562-7.188 1.239-20.487-7.371-18.846-2.684.511-2.684.759-.609-1.016 5.227-4.468 9.006-7.57 16.589-10.744a523.654 523.654 0 0 0 10.994-4.676c7.965-3.73 15.401-7.751 22.424-13.097 12.463-9.494 18.449-24.305 20.226-39.378zm-223.043 42.61c-11.71-6.209-25.967-9.85-36.398-16.374-27.069-16.934-17.687-51.38 6.854-62.029 2.506-1.086 5.104.496 5.716 3.158 5.401 23.607 14.357 49.838 25.891 73.302 1.205 2.448.351 3.223-2.063 1.943zm93.648 26.87h-19.327V92.565h-.453l-25.698 13.865-3.859-15.235 32.277-17.283h17.06v114.902zm92.8-43.247c-10.432 6.524-24.688 10.165-36.398 16.374-2.414 1.279-3.265.505-2.06-1.946 11.533-23.464 20.487-49.694 25.891-73.299.609-2.662 3.207-4.244 5.713-3.158 24.542 10.652 33.921 45.098 6.854 62.029z"/></svg>